<?xml version="1.0" encoding="utf-8"?>
<!-- Generator: Adobe Illustrator 25.2.0, SVG Export Plug-In . SVG Version: 6.00 Build 0)  -->
<svg version="1.1" id="Layer_1" xmlns="http://www.w3.org/2000/svg" xmlns:xlink="http://www.w3.org/1999/xlink" x="0px" y="0px"
	 viewBox="0 0 200.3 30.1" style="enable-background:new 0 0 200.3 30.1;" xml:space="preserve">
<style type="text/css">
	.st0{enable-background:new    ;}
	.st1{fill:#FFFFFF;}
	.st2{fill:#BA4826;}
</style>
<g id="Group_668" transform="translate(-8 -36)">
	<g transform="matrix(1, 0, 0, 1, 8, 36)">
		<g class="st0">
			<path class="st1" d="M7.2,2.8v5.8h13c3.8,0,4.8,1.2,4.8,4.9v2.3c0,3.8-1.1,4.9-4.8,4.9h-12c-3.7,0-4.8-1.1-4.8-4.9v-0.6l3.2-0.8
				v3.3h15.4v-6.2H9c-3.7,0-4.8-1-4.8-4.9V4.9C4.2,1,5.3,0,9,0h11c3.4,0,4.8,1,4.8,4.5V5l-3,0.8v-3H7.2z"/>
			<path class="st1" d="M43.5,20.6H40V2.8h-9.4V0H53v2.8h-9.5V20.6z"/>
			<path class="st1" d="M58.8,0h16.6c3,0,4.4,1.1,4.4,4v4.6c0,2.9-1.4,4-4.4,4h-3l9.4,8h-5.1l-8.4-8h-6.1v8h-3.4V0z M62.2,2.7v7.2
				H74c1.5,0,2.2-0.4,2.2-2.1v-3c0-1.7-0.7-2.1-2.2-2.1H62.2z"/>
			<path class="st1" d="M97.2,0h3.7l11.5,20.6h-3.8l-2.6-5.1H92l-2.6,5.1h-3.4L97.2,0z M104.5,12.9L99,2.4l-5.6,10.6H104.5z"/>
			<path class="st1" d="M124.1,20.6h-3.4V2.8h-9.4V0h22.4v2.8h-9.5V20.6z"/>
			<path class="st1" d="M143.9,0h14.3c3.7,0,4.8,1.1,4.8,4.9v10.9c0,3.8-1.1,4.9-4.8,4.9h-14.3c-3.7,0-4.8-1-4.8-4.9V4.9
				C139.1,1,140.2,0,143.9,0z M159.6,17.8v-15h-17.1v15H159.6z"/>
			<path class="st1" d="M176.5,2.8v5.8h13c3.8,0,4.8,1.2,4.8,4.9v2.3c0,3.8-1.1,4.9-4.8,4.9h-12c-3.7,0-4.8-1.1-4.8-4.9v-0.6
				l3.2-0.8v3.3h15.4v-6.2h-13c-3.7,0-4.8-1-4.8-4.9V4.9c0-3.8,1.1-4.9,4.8-4.9h11c3.4,0,4.8,1,4.8,4.5V5l-3,0.8v-3H176.5z"/>
		</g>
	</g>
	<g transform="matrix(1, 0, 0, 1, 8, 36)">
		<path class="st2" d="M200.3,30.1C98.7,16.3,1.1,30,0.1,30.1l-0.1-1c1-0.1,98.7-13.8,200.4,0L200.3,30.1z"/>
	</g>
</g>
</svg>
